<svg width="607" height="644" viewBox="0 0 607 644" fill="none" xmlns="http://www.w3.org/2000/svg">
<path d="M447.88 195C447.88 190.68 448.84 186.2 450.76 181.56C452.68 176.76 455.24 172.36 458.44 168.36C461.64 164.2 465.08 161.08 468.76 159L541.48 117L520.6 105L447.88 147C444.2 149.08 440.76 152.2 437.56 156.36C434.36 160.36 431.8 164.76 429.88 169.56C427.96 174.2 427 178.68 427 183V327L447.88 339V255V195Z" fill="#FF5542"/>
<path fill-rule="evenodd" clip-rule="evenodd" d="M447.88 195C447.88 190.68 448.84 186.2 450.76 181.56C452.68 176.76 455.24 172.36 458.44 168.36C461.64 164.2 465.08 161.08 468.76 159L541.48 117V141L489.21 171.189L478.985 177.094L468.76 183V195.25V207.5V219V242.931V267V327L447.88 339V255V195ZM541.48 201L489.4 231C489.253 231.083 489.106 231.168 488.959 231.255C488.648 231.439 488.339 231.63 488.031 231.829C484.864 233.876 481.88 236.72 479.08 240.36C476.04 244.36 473.56 248.76 471.64 253.56C469.72 258.2 468.76 262.68 468.76 267L541.48 225V201Z" fill="#E73A3A"/>
<path fill-rule="evenodd" clip-rule="evenodd" d="M468.76 242.931V219L520.6 189L541.48 201L489.4 231C489.253 231.083 489.106 231.168 488.959 231.255L468.76 242.931Z" fill="#FF5542"/>
<path d="M468.76 267C468.76 262.68 469.72 258.2 471.64 253.56C473.56 248.76 476.04 244.36 479.08 240.36C481.88 236.72 484.864 233.876 488.031 231.829C488.339 231.63 488.648 231.439 488.959 231.255L468.76 242.931V267Z" fill="#E73A3A"/>
<path d="M468.76 183V195.25C469.153 190.94 471.748 181.274 478.985 177.094L468.76 183Z" fill="#E73A3A"/>
<path d="M585.967 6.71237C578.576 2.55187 569.537 2.60203 562.192 6.84432L11.9965 324.622C4.57286 328.91 0 336.832 0 345.405V611.417C0 620.086 4.67415 628.08 12.228 632.332L32.9579 644V608.767V350.102L577 36L607 18.5508L585.967 6.71237Z" fill="#FF5542"/>
<path d="M32.9579 644L595.003 319.378C602.427 315.09 607 307.168 607 298.595V18.5508L577 36V298.5L32.9579 608.767V644Z" fill="#E73A3A"/>
<path d="M328.6 356V408L307.72 396V368.083L328.6 356ZM328.6 240V292L307.72 280V228L328.6 240ZM328.6 292L276.76 322L255.88 310L307.72 280L328.6 292ZM276.76 322L255.88 334L235 322L255.88 310L276.76 322ZM255.88 334V366V398L235 386V322L255.88 334Z" fill="#FF5542"/>
<path d="M328.6 292L276.76 322L255.88 334V366V398L276.76 386L307.72 368.083L328.6 356V408L398.18 284L328.6 240V292Z" fill="#E73A3A"/>
<path d="M103.88 538V418V370L83 358V526L103.88 538Z" fill="#FF5542"/>
<path fill-rule="evenodd" clip-rule="evenodd" d="M124.76 358V405.917V430L155.72 412.083V412L155.792 412.042L176.6 400V328L197.48 316V484L176.6 496V424L155.72 436.083L124.76 454V526L103.88 538V418V370L124.76 358Z" fill="#E73A3A"/>
<path d="M176.6 400V328L155.72 316V388L176.6 400Z" fill="#FF5542"/>
<path d="M176.6 400L155.72 388L124.76 405.917V430L155.72 412.083V412L155.792 412.042L176.6 400Z" fill="#FF5542"/>
<path d="M176.6 496V424L155.72 436.083V484L176.6 496Z" fill="#FF5542"/>
<path d="M176.6 328L197.48 316L176.6 304L155.72 316L176.6 328Z" fill="#FF5542"/>
<path d="M103.88 370L124.76 358L103.88 346L83 358L103.88 370Z" fill="#FF5542"/>
</svg>
